# xmcd
#
# Track frame offsets:
#	150
#	17908
#	32687
#	47404
#	65918
#	78744
#	96720
#	110195
#	125322
#	138794
#	156059
#	171221
#	186227
#	207103
#
# Disc length: 3001 seconds
#
# Revision: 0
# Processed by: cddbd v1.4PL0 Copyright (c) Steve Scherf et al.
# Submitted via: dBpowerAMP V4.0
#
DISCID=c80bb70e
DTITLE=Isla Grant - Only Yesterday
DYEAR=1900
DGENRE=Country
TTITLE0=Partners In Rhyme
TTITLE1=Lovely High Conn
TTITLE2=Will You Walk With Me
TTITLE3=Only Yesterday
TTITLE4=Love Me Tonight
TTITLE5=Simply Being You
TTITLE6=Life You Always Could Do
TTITLE7=A Single Yellow Rose
TTITLE8=Over The Years
TTITLE9=Whats A Girl To Do
TTITLE10=Leave Me The Way That I Am
TTITLE11=Every Moment Of Every Hour
TTITLE12=Love Just Walked Out The Door
TTITLE13=He's There For Me
EXTD=
EXTT0=
EXTT1=
EXTT2=
EXTT3=
EXTT4=
EXTT5=
EXTT6=
EXTT7=
EXTT8=
EXTT9=
EXTT10=
EXTT11=
EXTT12=
EXTT13=
PLAYORDER=
